<svg width="1280" height="420" viewBox="0 0 1280 420" fill="none" xmlns="http://www.w3.org/2000/svg" role="img" aria-label="Tiburon atmosferico NeMeSiS">
  <defs>
    <linearGradient id="shark-body" x1="58" y1="172" x2="1090" y2="252" gradientUnits="userSpaceOnUse">
      <stop stop-color="#9BEFFF" stop-opacity=".18"/>
      <stop offset=".2" stop-color="#188BC3" stop-opacity=".14"/>
      <stop offset=".55" stop-color="#08609B" stop-opacity=".09"/>
      <stop offset=".83" stop-color="#064270" stop-opacity=".055"/>
      <stop offset="1" stop-color="#02182F" stop-opacity=".025"/>
    </linearGradient>
    <linearGradient id="shark-fin" x1="420" y1="34" x2="612" y2="404" gradientUnits="userSpaceOnUse">
      <stop stop-color="#1683BC" stop-opacity=".32"/>
      <stop offset=".58" stop-color="#075284" stop-opacity=".22"/>
      <stop offset="1" stop-color="#02172D" stop-opacity=".08"/>
    </linearGradient>
    <linearGradient id="shark-rim" x1="32" y1="118" x2="1268" y2="292" gradientUnits="userSpaceOnUse">
      <stop stop-color="#D9FCFF" stop-opacity=".9"/>
      <stop offset=".16" stop-color="#57DDF7" stop-opacity=".8"/>
      <stop offset=".5" stop-color="#149FDF" stop-opacity=".52"/>
      <stop offset=".8" stop-color="#0A6DB8" stop-opacity=".24"/>
      <stop offset="1" stop-color="#06477E" stop-opacity=".05"/>
    </linearGradient>
    <radialGradient id="head-light" cx="0" cy="0" r="1" gradientTransform="translate(196 196) rotate(-8) scale(276 132)" gradientUnits="userSpaceOnUse">
      <stop stop-color="#E4FDFF" stop-opacity=".28"/>
      <stop offset=".38" stop-color="#45C4E9" stop-opacity=".16"/>
      <stop offset="1" stop-color="#041B35" stop-opacity="0"/>
    </radialGradient>
    <pattern id="reference-mesh" width="31" height="27" patternUnits="userSpaceOnUse">
      <circle cx="3" cy="3" r="1.25" fill="#A8F2FF" opacity=".8"/>
      <circle cx="27" cy="13" r="1" fill="#43C8F2" opacity=".72"/>
      <circle cx="10" cy="25" r=".9" fill="#6BDDF7" opacity=".66"/>
      <path d="M3 3L27 13L10 25L3 3" stroke="#39BCEB" stroke-width=".52" opacity=".42"/>
    </pattern>
    <filter id="shark-glow" x="-8%" y="-24%" width="120%" height="150%" color-interpolation-filters="sRGB">
      <feGaussianBlur in="SourceGraphic" stdDeviation="1.45" result="blur"/>
      <feColorMatrix in="blur" type="matrix" values="0 0 0 0 .01 0 0 0 0 .55 0 0 0 0 .96 0 0 0 .28 0" result="cyan"/>
      <feMerge><feMergeNode in="cyan"/><feMergeNode in="SourceGraphic"/></feMerge>
    </filter>
    <path id="reference-anatomical-body" d="M58 198C83 169 149 137 244 111C373 76 526 79 671 110C794 136 892 159 1008 145C1041 154 1066 174 1080 199C1052 222 1001 245 924 268C785 310 632 326 472 316C319 307 187 276 96 241C70 231 55 216 58 198Z"/>
    <clipPath id="body-clip"><use href="#reference-anatomical-body"/></clipPath>
  </defs>
  <g filter="url(#shark-glow)" stroke-linecap="round" stroke-linejoin="round">
    <path id="reference-tail" d="M1008 145C1090 126 1173 78 1255 24C1235 94 1201 153 1154 195C1204 213 1243 264 1270 355C1207 307 1127 278 1022 255C1062 229 1080 183 1008 145Z" fill="url(#reference-mesh)" fill-opacity=".3" stroke="url(#shark-rim)" stroke-width="1.35"/>
    <path id="reference-dorsal-fin" d="M486 83C546 50 612 31 688 34C651 70 648 104 678 132C609 116 546 99 486 83Z" fill="url(#shark-fin)" stroke="url(#shark-rim)" stroke-width="1.35"/>
    <path id="reference-pectoral-fin" d="M354 296C421 341 499 371 590 386C539 340 520 302 532 270C468 279 409 288 354 296Z" fill="url(#shark-fin)" stroke="url(#shark-rim)" stroke-width="1.15"/>
    <path d="M709 300C749 329 795 347 846 354C817 324 811 297 827 275C785 285 746 293 709 300Z" fill="#06345B" fill-opacity=".08" stroke="#27B3E5" stroke-opacity=".26" stroke-width=".8"/>
    <use href="#reference-anatomical-body" fill="url(#shark-body)" stroke="url(#shark-rim)" stroke-width="1.8"/>
    <g clip-path="url(#body-clip)">
      <rect x="28" y="105" width="1090" height="250" fill="url(#head-light)"/>
      <rect x="29" y="104" width="1090" height="252" fill="url(#reference-mesh)" opacity=".9"/>
      <path d="M72 187C219 128 395 111 568 133C733 154 881 189 1052 194M60 211C231 184 416 197 614 227C784 253 918 259 1066 231M84 250C243 239 414 259 588 294C727 321 850 313 968 277" stroke="#6BDCF5" stroke-opacity=".31" stroke-width=".82"/>
      <path d="M190 132C169 176 174 232 205 276M304 106C284 163 297 249 337 306M426 87C409 154 430 258 475 319M552 88C546 165 568 266 613 316M681 112C687 184 716 263 759 300M814 142C827 198 854 253 896 278" stroke="#22A8DB" stroke-opacity=".27" stroke-width=".68"/>
      <path id="reference-belly" d="M60 211C175 269 322 306 485 310C648 314 813 290 977 248C862 300 740 322 610 329C454 337 307 316 193 281C111 256 70 231 60 211Z" fill="#8FEAFF" fill-opacity=".035"/>
      <path d="M59 199C107 181 164 181 229 197C198 221 157 239 101 249C75 235 59 219 59 199Z" fill="#B5F4FF" fill-opacity=".045" stroke="#8EEBFA" stroke-opacity=".34" stroke-width=".8"/>
    </g>
    <path d="M61 215C116 208 178 222 247 254C190 247 140 255 101 270C83 254 69 235 61 215Z" fill="#000A13" fill-opacity=".74" stroke="#071A29" stroke-width="1.7"/>
    <path d="M101 270C147 268 197 263 247 254" stroke="#83E8F7" stroke-opacity=".48" stroke-width=".85"/>
    <path d="M83 225L91 232L99 226L107 235L115 229L124 239L133 233L142 243L152 237L162 247L172 242L182 251L193 247" stroke="#D8FAFF" stroke-opacity=".58" stroke-width=".7"/>
    <path d="M68 190C132 147 212 128 301 139" stroke="#E9FEFF" stroke-opacity=".68" stroke-width="1.4"/>
    <path id="reference-gills" d="M238 120C252 145 257 174 254 205M266 114C282 143 287 174 283 209M296 109C312 141 318 174 314 212" stroke="#68D7EF" stroke-opacity=".58" stroke-width="1.05"/>
    <circle id="reference-eye" cx="184" cy="160" r="3.7" fill="#F1FFFF"/>
    <circle cx="184" cy="160" r="1.3" fill="#00101B"/>
  </g>
</svg>
