<svg width="180" height="82" viewBox="0 0 180 82" fill="none" xmlns="http://www.w3.org/2000/svg" role="img" aria-label="NeMeSiS SHARK PRO">
  <defs>
    <linearGradient id="brand-body" x1="8" y1="28" x2="169" y2="58" gradientUnits="userSpaceOnUse">
      <stop stop-color="#8BEAF9" stop-opacity=".9"/>
      <stop offset=".24" stop-color="#1683BA" stop-opacity=".88"/>
      <stop offset=".62" stop-color="#07558A" stop-opacity=".82"/>
      <stop offset="1" stop-color="#032444" stop-opacity=".58"/>
    </linearGradient>
    <linearGradient id="brand-edge" x1="8" y1="24" x2="178" y2="56" gradientUnits="userSpaceOnUse">
      <stop stop-color="#E9FFFF"/>
      <stop offset=".38" stop-color="#56D9F2"/>
      <stop offset=".78" stop-color="#108FCF"/>
      <stop offset="1" stop-color="#0965A5" stop-opacity=".4"/>
    </linearGradient>
    <filter id="brand-glow" x="-20%" y="-45%" width="145%" height="190%">
      <feGaussianBlur in="SourceGraphic" stdDeviation=".65" result="blur"/>
      <feColorMatrix in="blur" type="matrix" values="0 0 0 0 .02 0 0 0 0 .58 0 0 0 0 .94 0 0 0 .5 0" result="aqua"/>
      <feMerge><feMergeNode in="aqua"/><feMergeNode in="SourceGraphic"/></feMerge>
    </filter>
  </defs>
  <g filter="url(#brand-glow)" stroke-linecap="round" stroke-linejoin="round">
    <path id="brand-reference-tail" d="M144 30C157 27 168 18 179 7C177 20 173 29 167 36C175 39 179 49 181 67C171 57 159 50 146 48C151 44 151 35 144 30Z" fill="#06355D" fill-opacity=".76" stroke="url(#brand-edge)" stroke-width="1"/>
    <path id="brand-reference-body" d="M8 41C13 30 29 24 51 21C75 18 101 20 123 25C134 28 143 28 151 27C157 31 160 36 160 41C158 47 154 51 149 53C139 52 131 53 122 56C96 63 67 65 42 60C23 57 11 50 8 43Z" fill="url(#brand-body)" stroke="url(#brand-edge)" stroke-width="1.5"/>
    <path id="brand-reference-dorsal" d="M74 20C84 10 95 5 108 2C103 12 104 20 110 27" fill="#0A5688" fill-opacity=".72" stroke="url(#brand-edge)" stroke-width="1"/>
    <path id="brand-reference-pectoral" d="M64 60C74 70 87 76 104 79C95 69 92 61 94 55" fill="#073D66" fill-opacity=".68" stroke="url(#brand-edge)" stroke-width=".9"/>
    <path d="M10 43C23 40 38 43 57 51C45 49 33 52 21 58" stroke="#031321" stroke-width="2.2"/>
    <path d="M21 58C33 61 45 58 57 51" stroke="#76E5F4" stroke-opacity=".52" stroke-width=".7"/>
    <path d="M14 35C29 27 45 26 61 29" stroke="#EAFDFF" stroke-opacity=".68" stroke-width=".9"/>
    <path d="M35 25C38 30 38 35 37 40M42 23C45 29 46 34 45 41M49 22C52 28 54 34 53 42" stroke="#70DDF1" stroke-opacity=".58" stroke-width=".65"/>
    <circle id="brand-reference-eye" cx="32" cy="31" r="1.6" fill="#F5FFFF"/>
    <circle cx="32" cy="31" r=".65" fill="#00101A"/>
  </g>
</svg>
